# xmcd
#
# Track frame offsets: 
#        150
#        22188
#        41677
#        51789
#        66777
#        82392
#        100584
#        121229
#        138461
#        157127
#        179235
#        182478
#        187700
#
# Disc length: 2594 seconds
#
# Revision: 0
# Processed by: cddbd v1.5.2PL0 Copyright (c) Steve Scherf et al.
# Submitted via: ExactAudioCopy v0.95b3
#
DISCID=b80a200d
DTITLE=Ac-Dc  - Shockingly Rare (2006)
DYEAR=1900
DGENRE=
TTITLE0=Acdc - Johnny Be Goode(Live Bon Scott)
TTITLE1=Acdc - Ride on(Bon's Last Recording with the Band Trust
TTITLE2=Acdc - Angus Young Guitar Solo
TTITLE3=Acdc - Shot in the Head(Angus and Malcom with Marcus Hook Band)
TTITLE4=Acdc - Desert Sands(Angus and Malcom Live Life is Hard Band)
TTITLE5=Acdc - Rosie(Angus Young Live with Guns-N-Roses)
TTITLE6=Acdc - Back in Black(Original Unreleased Version)
TTITLE7=Acdc - T.N.T.(Recorded Live with Dave Evans)
TTITLE8=Acdc - Boom Boom(Live with Brian Johnson)
TTITLE9=Acdc - Lucille(Live with Brian Johnson)
TTITLE10=Acdc - Hellbillyditty(Studio Outtake)
TTITLE11=Acdc - Twist(Studio Outtake)
TTITLE12=Acdc - German Narration Parody
EXTD=
EXTT0=
EXTT1=
EXTT2=
EXTT3=
EXTT4=
EXTT5=
EXTT6=
EXTT7=
EXTT8=
EXTT9=
EXTT10=
EXTT11=
EXTT12=
PLAYORDER=
